<svg xmlns="http://www.w3.org/2000/svg" xmlns:xlink="http://www.w3.org/1999/xlink" width="512" zoomAndPan="magnify" viewBox="0 0 384 383.999986" height="512" preserveAspectRatio="xMidYMid meet" version="1.0"><defs><filter x="0%" y="0%" width="100%" height="100%" id="ab173310aa"><feColorMatrix values="0 0 0 0 1 0 0 0 0 1 0 0 0 0 1 0 0 0 1 0" color-interpolation-filters="sRGB"/></filter><g/><clipPath id="d5c1a27a5c"><path d="M 7.035156 7.035156 L 376.964844 7.035156 L 376.964844 376.964844 L 7.035156 376.964844 Z M 7.035156 7.035156 " clip-rule="nonzero"/></clipPath><clipPath id="7d7e5a9a51"><path d="M 192 7.035156 C 89.847656 7.035156 7.035156 89.847656 7.035156 192 C 7.035156 294.152344 89.847656 376.964844 192 376.964844 C 294.152344 376.964844 376.964844 294.152344 376.964844 192 C 376.964844 89.847656 294.152344 7.035156 192 7.035156 Z M 192 7.035156 " clip-rule="nonzero"/></clipPath><clipPath id="3e960bb700"><path d="M 0.0351562 0.0351562 L 369.964844 0.0351562 L 369.964844 369.964844 L 0.0351562 369.964844 Z M 0.0351562 0.0351562 " clip-rule="nonzero"/></clipPath><clipPath id="9eb8f03931"><path d="M 185 0.0351562 C 82.847656 0.0351562 0.0351562 82.847656 0.0351562 185 C 0.0351562 287.152344 82.847656 369.964844 185 369.964844 C 287.152344 369.964844 369.964844 287.152344 369.964844 185 C 369.964844 82.847656 287.152344 0.0351562 185 0.0351562 Z M 185 0.0351562 " clip-rule="nonzero"/></clipPath><clipPath id="196083cffc"><rect x="0" width="370" y="0" height="370"/></clipPath><mask id="a0058d08ce"><g filter="url(#ab173310aa)"><rect x="-38.4" width="460.8" fill="#000000" y="-38.399999" height="460.799983" fill-opacity="0.71"/></g></mask><clipPath id="e15714ad06"><path d="M 0.320312 0.320312 L 140 0.320312 L 140 243.679688 L 0.320312 243.679688 Z M 0.320312 0.320312 " clip-rule="nonzero"/></clipPath><clipPath id="8bb03ee33a"><rect x="0" width="140" y="0" height="244"/></clipPath><clipPath id="48e5754ea8"><rect x="0" width="140" y="0" height="244"/></clipPath><mask id="da1763dad2"><g filter="url(#ab173310aa)"><rect x="-38.4" width="460.8" fill="#000000" y="-38.399999" height="460.799983" fill-opacity="0.71"/></g></mask><clipPath id="cc900cb682"><path d="M 0.0390625 0.320312 L 139.960938 0.320312 L 139.960938 243.679688 L 0.0390625 243.679688 Z M 0.0390625 0.320312 " clip-rule="nonzero"/></clipPath><clipPath id="1d5aed94fc"><rect x="0" width="140" y="0" height="244"/></clipPath><clipPath id="cd90a0c916"><rect x="0" width="140" y="0" height="244"/></clipPath></defs><g clip-path="url(#d5c1a27a5c)"><g clip-path="url(#7d7e5a9a51)"><g transform="matrix(1, 0, 0, 1, 7, 7)"><g clip-path="url(#196083cffc)"><g clip-path="url(#3e960bb700)"><g clip-path="url(#9eb8f03931)"><path fill="#b28335" d="M 0.0351562 0.0351562 L 369.964844 0.0351562 L 369.964844 369.964844 L 0.0351562 369.964844 Z M 0.0351562 0.0351562 " fill-opacity="1" fill-rule="nonzero"/></g></g></g></g></g></g><g mask="url(#a0058d08ce)"><g transform="matrix(1, 0, 0, 1, 82, 88)"><g clip-path="url(#48e5754ea8)"><g clip-path="url(#e15714ad06)"><g><g clip-path="url(#8bb03ee33a)"><g fill="#fffef5" fill-opacity="1"><g transform="translate(0.328848, 191.77553)"><g><path d="M 41.703125 -138.484375 C 41.859375 -132.035156 44.003906 -126.617188 48.140625 -122.234375 C 52.285156 -117.847656 57.625 -113.914062 64.15625 -110.4375 C 70.6875 -106.96875 77.59375 -103.492188 84.875 -100.015625 C 92.15625 -96.546875 99.019531 -92.617188 105.46875 -88.234375 C 111.925781 -83.847656 117.222656 -78.507812 121.359375 -72.21875 C 125.492188 -65.9375 127.5625 -58.160156 127.5625 -48.890625 C 127.5625 -39.128906 125.78125 -30.9375 122.21875 -24.3125 C 118.664062 -17.695312 113.867188 -12.445312 107.828125 -8.5625 C 101.796875 -4.675781 95.097656 -1.90625 87.734375 -0.25 C 80.367188 1.40625 72.960938 2.234375 65.515625 2.234375 C 60.554688 2.234375 55.757812 1.691406 51.125 0.609375 C 46.488281 -0.460938 42.1875 -1.535156 38.21875 -2.609375 C 34.25 -3.679688 30.691406 -4.21875 27.546875 -4.21875 C 23.410156 -4.21875 20.429688 -2.8125 18.609375 0 L 15.890625 0 L 10.171875 -58.328125 L 12.65625 -58.328125 C 14.3125 -47.242188 17.910156 -37.8125 23.453125 -30.03125 C 28.992188 -22.25 35.445312 -16.332031 42.8125 -12.28125 C 50.175781 -8.226562 57.414062 -6.203125 64.53125 -6.203125 C 70.488281 -6.203125 76.070312 -7.566406 81.28125 -10.296875 C 86.488281 -13.023438 90.664062 -17.203125 93.8125 -22.828125 C 96.957031 -28.453125 98.53125 -35.40625 98.53125 -43.6875 C 98.53125 -50.957031 96.546875 -57.035156 92.578125 -61.921875 C 88.609375 -66.804688 83.476562 -70.984375 77.1875 -74.453125 C 70.894531 -77.929688 64.191406 -81.320312 57.078125 -84.625 C 49.960938 -87.9375 43.257812 -91.578125 36.96875 -95.546875 C 30.6875 -99.523438 25.5625 -104.40625 21.59375 -110.1875 C 17.625 -115.976562 15.640625 -123.175781 15.640625 -131.78125 C 15.640625 -141.21875 18.035156 -149.203125 22.828125 -155.734375 C 27.628906 -162.273438 34 -167.195312 41.9375 -170.5 C 49.882812 -173.8125 58.40625 -175.46875 67.5 -175.46875 C 74.78125 -175.46875 80.898438 -174.597656 85.859375 -172.859375 C 90.828125 -171.117188 95.050781 -170.25 98.53125 -170.25 C 99.851562 -170.25 101.09375 -170.5 102.25 -171 C 103.40625 -171.5 104.398438 -172.410156 105.234375 -173.734375 L 107.71875 -173.734375 L 114.90625 -127.5625 L 112.1875 -127.5625 C 110.363281 -136.332031 107.09375 -143.613281 102.375 -149.40625 C 97.65625 -155.195312 92.316406 -159.539062 86.359375 -162.4375 C 80.410156 -165.332031 74.539062 -166.78125 68.75 -166.78125 C 61.132812 -166.78125 54.679688 -164.378906 49.390625 -159.578125 C 44.097656 -154.785156 41.535156 -147.753906 41.703125 -138.484375 Z M 41.703125 -138.484375 "/></g></g></g></g></g></g></g></g></g><g mask="url(#da1763dad2)"><g transform="matrix(1, 0, 0, 1, 161, 88)"><g clip-path="url(#cd90a0c916)"><g clip-path="url(#cc900cb682)"><g transform="matrix(1, 0, 0, 1, 0.000000000000028422, 0)"><g clip-path="url(#1d5aed94fc)"><g fill="#fffef5" fill-opacity="1"><g transform="translate(0.117602, 191.77553)"><g><path d="M 41.703125 -138.484375 C 41.859375 -132.035156 44.003906 -126.617188 48.140625 -122.234375 C 52.285156 -117.847656 57.625 -113.914062 64.15625 -110.4375 C 70.6875 -106.96875 77.59375 -103.492188 84.875 -100.015625 C 92.15625 -96.546875 99.019531 -92.617188 105.46875 -88.234375 C 111.925781 -83.847656 117.222656 -78.507812 121.359375 -72.21875 C 125.492188 -65.9375 127.5625 -58.160156 127.5625 -48.890625 C 127.5625 -39.128906 125.78125 -30.9375 122.21875 -24.3125 C 118.664062 -17.695312 113.867188 -12.445312 107.828125 -8.5625 C 101.796875 -4.675781 95.097656 -1.90625 87.734375 -0.25 C 80.367188 1.40625 72.960938 2.234375 65.515625 2.234375 C 60.554688 2.234375 55.757812 1.691406 51.125 0.609375 C 46.488281 -0.460938 42.1875 -1.535156 38.21875 -2.609375 C 34.25 -3.679688 30.691406 -4.21875 27.546875 -4.21875 C 23.410156 -4.21875 20.429688 -2.8125 18.609375 0 L 15.890625 0 L 10.171875 -58.328125 L 12.65625 -58.328125 C 14.3125 -47.242188 17.910156 -37.8125 23.453125 -30.03125 C 28.992188 -22.25 35.445312 -16.332031 42.8125 -12.28125 C 50.175781 -8.226562 57.414062 -6.203125 64.53125 -6.203125 C 70.488281 -6.203125 76.070312 -7.566406 81.28125 -10.296875 C 86.488281 -13.023438 90.664062 -17.203125 93.8125 -22.828125 C 96.957031 -28.453125 98.53125 -35.40625 98.53125 -43.6875 C 98.53125 -50.957031 96.546875 -57.035156 92.578125 -61.921875 C 88.609375 -66.804688 83.476562 -70.984375 77.1875 -74.453125 C 70.894531 -77.929688 64.191406 -81.320312 57.078125 -84.625 C 49.960938 -87.9375 43.257812 -91.578125 36.96875 -95.546875 C 30.6875 -99.523438 25.5625 -104.40625 21.59375 -110.1875 C 17.625 -115.976562 15.640625 -123.175781 15.640625 -131.78125 C 15.640625 -141.21875 18.035156 -149.203125 22.828125 -155.734375 C 27.628906 -162.273438 34 -167.195312 41.9375 -170.5 C 49.882812 -173.8125 58.40625 -175.46875 67.5 -175.46875 C 74.78125 -175.46875 80.898438 -174.597656 85.859375 -172.859375 C 90.828125 -171.117188 95.050781 -170.25 98.53125 -170.25 C 99.851562 -170.25 101.09375 -170.5 102.25 -171 C 103.40625 -171.5 104.398438 -172.410156 105.234375 -173.734375 L 107.71875 -173.734375 L 114.90625 -127.5625 L 112.1875 -127.5625 C 110.363281 -136.332031 107.09375 -143.613281 102.375 -149.40625 C 97.65625 -155.195312 92.316406 -159.539062 86.359375 -162.4375 C 80.410156 -165.332031 74.539062 -166.78125 68.75 -166.78125 C 61.132812 -166.78125 54.679688 -164.378906 49.390625 -159.578125 C 44.097656 -154.785156 41.535156 -147.753906 41.703125 -138.484375 Z M 41.703125 -138.484375 "/></g></g></g></g></g></g></g></g></g></svg>